<svg xmlns="http://www.w3.org/2000/svg" viewBox="0 0 400 100" fill="none">
  <defs>
    <linearGradient id="grad" x1="8" y1="8" x2="80" y2="80" gradientUnits="userSpaceOnUse">
      <stop offset="0%" stop-color="#60A5FA"/>
      <stop offset="100%" stop-color="#2563EB"/>
    </linearGradient>
  </defs>
  <!-- Icon: speech bubble + crosshair -->
  <g transform="translate(8, 6)">
    <!-- Speech bubble -->
    <path d="M44 4C25.6 4 10.4 17.2 10.4 33.6c0 7.3 3 14 8.2 19.4L14 63c-.6 1.6 1 3.1 2.5 2.4l15.2-7.6c3.8 1.4 8 2.2 12.3 2.2 18.4 0 33.6-13.2 33.6-29.6S62.4 4 44 4Z" fill="url(#grad)"/>
    <!-- Crosshair ring -->
    <circle cx="44" cy="32" r="14" stroke="#fff" stroke-width="3.8" fill="none"/>
    <!-- Crosshair lines -->
    <line x1="44" y1="14" x2="44" y2="22" stroke="#fff" stroke-width="3" stroke-linecap="round"/>
    <line x1="44" y1="42" x2="44" y2="50" stroke="#fff" stroke-width="3" stroke-linecap="round"/>
    <line x1="26" y1="32" x2="34" y2="32" stroke="#fff" stroke-width="3" stroke-linecap="round"/>
    <line x1="54" y1="32" x2="62" y2="32" stroke="#fff" stroke-width="3" stroke-linecap="round"/>
    <!-- Center dot -->
    <circle cx="44" cy="32" r="2.2" fill="#fff"/>
  </g>
  <!-- Text: GoSnap -->
  <text x="108" y="62" font-family="'SF Pro Display', 'Inter', -apple-system, BlinkMacSystemFont, 'Segoe UI', sans-serif" font-size="42" font-weight="700" fill="#0F172A" letter-spacing="-0.5">GoSnap</text>
</svg>
